<svg width="60" height="61" viewBox="0 0 60 61" fill="none" xmlns="http://www.w3.org/2000/svg">
<mask id="mask0_3339_1204" style="mask-type:luminance" maskUnits="userSpaceOnUse" x="4" y="0" width="52" height="61">
<path fill-rule="evenodd" clip-rule="evenodd" d="M48.7215 1.14624C48.7215 1.50315 49.0097 1.79249 49.3652 1.79249H51.1158L48.8675 4.54359C48.5228 4.9654 48.8217 5.59971 49.3652 5.59971H52.4767C52.8322 5.59971 53.1205 5.31038 53.1205 4.95347C53.1205 4.59656 52.8322 4.30723 52.4767 4.30723H50.7261L52.9744 1.55612C53.3191 1.13431 53.0202 0.5 52.4767 0.5H49.3652C49.0097 0.5 48.7215 0.789333 48.7215 1.14624ZM43.8495 3.58209C43.8495 3.939 44.1378 4.22833 44.4933 4.22833H46.2439L43.9956 6.97943C43.6509 7.40124 43.9498 8.03556 44.4933 8.03556H47.6047C47.9603 8.03556 48.2485 7.74622 48.2485 7.38931C48.2485 7.0324 47.9603 6.74307 47.6047 6.74307H45.8542L48.1025 3.99196C48.4472 3.57016 48.1483 2.93584 47.6047 2.93584H44.4933C44.1378 2.93584 43.8495 3.22518 43.8495 3.58209ZM35.9145 11.9245C35.9145 10.2575 34.5607 8.90117 32.8967 8.90117H26.6066L26.4936 8.90326C24.8817 8.96298 23.5888 10.2953 23.5888 11.9245C23.5888 13.5916 24.9426 14.9479 26.6066 14.9479H28.7458V16.7314L28.4234 16.7483C24.3461 16.9915 20.481 18.3521 17.1836 20.6839L15.4658 18.9629L19.0182 15.4039L19.077 15.3398C19.4099 14.9439 19.3903 14.3515 19.0182 13.9787C17.541 12.4988 15.577 11.6837 13.4879 11.6837C11.3989 11.6837 9.43489 12.4987 7.9576 13.9787L6.29078 15.6487L6.14991 15.7934C4.76195 17.2556 4 19.1638 4 21.1891C4 23.282 4.81359 25.2497 6.29068 26.7297C6.47929 26.9187 6.7352 27.0249 7.00197 27.0249C7.26874 27.0249 7.52465 26.9187 7.71326 26.7297L11.2103 23.2262L12.7832 24.8019L12.5987 25.0319C9.55134 28.8822 7.89704 33.615 7.89704 38.603C7.89704 43.6121 9.56606 48.3635 12.6381 52.2226L8.61943 58.883C8.46294 59.1528 8.42605 59.2594 8.42605 59.4854C8.42605 59.7534 8.53268 60.0105 8.7223 60.1997C8.98961 60.4663 9.18049 60.4947 9.7597 60.4991L10.7473 60.4999L12.9062 60.4931L13.01 60.4888C13.2709 60.4648 13.5136 60.3395 13.6847 60.1376L16.9148 56.327L17.1577 56.5018C20.8168 59.0977 25.1766 60.4979 29.7517 60.4979C34.4284 60.4979 38.8801 59.0348 42.5884 56.327L45.8186 60.1376L45.8782 60.202C46.0645 60.3866 46.3165 60.4919 46.5808 60.493L48.5397 60.4995L49.7435 60.4991C50.3227 60.4947 50.5136 60.4662 50.781 60.1997C50.9706 60.0105 51.0772 59.7534 51.0772 59.4854C51.0772 59.2217 51.027 59.1206 50.7952 58.7332L46.8651 52.2226C49.9373 48.3635 51.6062 43.6121 51.6062 38.603C51.6062 33.5154 49.8852 28.6932 46.7203 24.8022L48.2933 23.2263L51.7904 26.7298L51.8557 26.7897C52.036 26.9411 52.2646 27.025 52.5018 27.025C52.7686 27.025 53.0245 26.9188 53.2131 26.7298C56.2623 23.6746 56.2623 18.7037 53.213 15.6486L51.5461 13.9786L51.4016 13.8375C49.942 12.4469 48.0374 11.6837 46.0157 11.6837C43.9266 11.6837 41.9627 12.4988 40.4855 13.9787C40.0926 14.3722 40.0926 15.0104 40.4855 15.4039L44.0379 18.9629L42.3199 20.6841L42.0584 20.502C38.7312 18.2212 34.8458 16.9157 30.7575 16.7314V14.9479H32.8967L33.0097 14.9458C34.6215 14.8861 35.9145 13.5537 35.9145 11.9245ZM11.208 58.4833L14.0305 53.8103L14.0676 53.8487L14.0676 53.8488C14.144 53.9279 14.2203 54.0071 14.2982 54.085C14.6376 54.4251 14.9872 54.7513 15.3444 55.066L12.4509 58.4795L11.208 58.4833ZM45.2051 54.085C45.2957 53.9943 45.3841 53.9022 45.4728 53.8103L48.2952 58.4833L47.0523 58.4795L44.1589 55.066L44.4254 54.8278C44.6903 54.5873 44.9505 54.34 45.2051 54.085ZM9.90908 38.6029C9.90908 27.6413 18.8105 18.7234 29.7517 18.7234C40.6929 18.7234 49.5943 27.6413 49.5943 38.6029C49.5943 49.5645 40.6929 58.4823 29.7517 58.4823C18.8104 58.4823 9.90908 49.5644 9.90908 38.6029ZM47.1772 38.6029C47.1772 28.9766 39.3601 21.1451 29.7517 21.1451C25.7673 21.1451 22.017 22.4565 18.9062 24.9377C15.8881 27.345 13.7265 30.7275 12.8195 34.4623C12.6882 35.0031 13.0193 35.5482 13.5592 35.6798C14.0988 35.8111 14.6429 35.4797 14.7744 34.9388C16.4584 28.004 22.6174 23.1607 29.7518 23.1607C38.2509 23.1607 45.1654 30.088 45.1654 38.6029C45.1654 47.1178 38.2509 54.0451 29.7518 54.0451C22.55 54.0451 16.3778 49.1457 14.7419 42.1306C14.6155 41.5886 14.0745 41.2518 13.5335 41.3784C12.9925 41.505 12.6565 42.0471 12.7828 42.5891C13.6623 46.3606 15.8156 49.781 18.8464 52.22C21.9238 54.6968 25.7967 56.0607 29.7518 56.0607C39.3602 56.0607 47.1772 48.2292 47.1772 38.6029ZM23.9439 31.3642C23.5487 31.0307 22.9574 31.0503 22.5852 31.4231C22.1924 31.8167 22.1924 32.4548 22.5852 32.8484L26.6775 36.9483L26.608 37.0845C26.3859 37.5439 26.2611 38.0591 26.2611 38.6029C26.2611 40.1808 27.31 41.5174 28.7457 41.9512V51.4634L28.7484 51.5386C28.7869 52.0601 29.2214 52.4712 29.7517 52.4712C30.3072 52.4712 30.7576 52.02 30.7576 51.4634V41.9512L30.8797 41.9118C32.2524 41.4408 33.2421 40.1357 33.2421 38.6029C33.2421 36.6747 31.6763 35.106 29.7517 35.106C29.1546 35.106 28.5922 35.2571 28.1002 35.523L24.0079 31.4231L23.9439 31.3642ZM41.8015 41.6472C41.6144 41.4598 41.3549 41.3519 41.0903 41.3519C40.8258 41.3519 40.5662 41.4598 40.3791 41.6472C40.192 41.8347 40.0844 42.0947 40.0844 42.3597C40.0844 42.6248 40.192 42.8848 40.3791 43.0722C40.5662 43.2597 40.8258 43.3675 41.0903 43.3675C41.3549 43.3675 41.6144 43.2597 41.8015 43.0722C41.9886 42.8848 42.0962 42.6248 42.0962 42.3597C42.0962 42.0947 41.9886 41.8347 41.8015 41.6472ZM28.273 38.6029C28.273 37.7861 28.9363 37.1215 29.7516 37.1215C30.5669 37.1215 31.2302 37.7861 31.2302 38.6029C31.2302 39.4197 30.5669 40.0842 29.7516 40.0842C28.9363 40.0842 28.273 39.4197 28.273 38.6029ZM39.9011 31.5606C39.5845 31.1032 38.9577 30.9898 38.5012 31.307C38.0447 31.6243 37.9314 32.2522 38.2481 32.7096C39.4496 34.4447 40.0847 36.4825 40.0847 38.603C40.0847 39.1596 40.535 39.6108 41.0906 39.6108C41.6462 39.6108 42.0965 39.1596 42.0965 38.603C42.0965 36.0698 41.3374 33.6347 39.9011 31.5606ZM14.0431 37.8902C13.856 37.7027 13.5965 37.5949 13.3319 37.5949C13.0674 37.5949 12.8078 37.7027 12.6207 37.8902C12.4336 38.0776 12.326 38.3376 12.326 38.6027C12.326 38.8677 12.4336 39.1277 12.6207 39.3152C12.8078 39.5026 13.0674 39.6105 13.3319 39.6105C13.5965 39.6105 13.8561 39.5026 14.0431 39.3152C14.2302 39.1277 14.3378 38.8677 14.3378 38.6027C14.3378 38.3376 14.2302 38.0776 14.0431 37.8902ZM9.51249 15.2754C10.6272 14.2265 12.0575 13.702 13.4879 13.702C14.657 13.702 15.826 14.0523 16.8227 14.753L7.06303 24.5307L6.9521 24.3671C6.34015 23.4302 6.01184 22.3349 6.01184 21.1891C6.01184 19.6346 6.6161 18.1731 7.71336 17.0738L9.38027 15.4038L9.51249 15.2754ZM42.8437 14.6412C43.7789 14.0281 44.8722 13.6991 46.0158 13.6991C47.5674 13.6991 49.0263 14.3045 50.1235 15.4038L51.7904 17.0738L51.903 17.1897C53.8204 19.219 53.9995 22.3037 52.44 24.5301L42.6804 14.7523L42.8437 14.6412ZM43.92 21.9317L45.4606 20.3881L46.8706 21.8009L45.3771 23.2972L45.2051 23.1208C44.7903 22.7051 44.3612 22.3093 43.92 21.9317ZM12.6331 21.8008L14.0432 20.3881L15.5837 21.9315L15.255 22.2182C14.9286 22.5083 14.6093 22.809 14.2982 23.1208L14.1265 23.297L12.6331 21.8008ZM26.6066 10.9167H32.8967L32.9717 10.9195C33.4914 10.9581 33.9026 11.3941 33.9026 11.9245C33.9026 12.4802 33.4514 12.9323 32.8967 12.9323H26.6066L26.5316 12.9296C26.0118 12.891 25.6006 12.455 25.6006 11.9245C25.6006 11.3688 26.0519 10.9167 26.6066 10.9167ZM39.6473 6.83816C39.2918 6.83816 39.0035 6.54883 39.0035 6.19192C39.0035 5.83501 39.2918 5.54567 39.6473 5.54567H42.7587C43.3022 5.54567 43.6012 6.17999 43.2565 6.60179L41.0082 9.3529H42.7587C43.1143 9.3529 43.4025 9.64223 43.4025 9.99914C43.4025 10.3561 43.1143 10.6454 42.7587 10.6454H39.6473C39.1038 10.6454 38.8049 10.0111 39.1496 9.58926L41.3979 6.83816H39.6473Z" fill="white"/>
</mask>
<g mask="url(#mask0_3339_1204)">
<rect x="-6.59375" y="-2.70312" width="75" height="67" fill="#00C5CA"/>
</g>
</svg>
