<svg width="60" height="61" viewBox="0 0 60 61" fill="none" xmlns="http://www.w3.org/2000/svg">
<mask id="mask0_3340_28558" style="mask-type:luminance" maskUnits="userSpaceOnUse" x="7" y="0" width="46" height="61">
<path fill-rule="evenodd" clip-rule="evenodd" d="M7.58259 16.1813C7.58716 16.1648 7.59171 16.1483 7.59835 16.132C7.64387 16.0258 7.70665 15.9279 7.78408 15.8416L21.7126 0.841622C21.7168 0.836391 21.7283 0.829067 21.7283 0.829067C21.7503 0.80971 21.7728 0.791923 21.7958 0.775181C21.8685 0.709787 21.9502 0.654855 22.0381 0.612479C22.0731 0.596784 22.1087 0.583182 22.1453 0.571673C22.2395 0.537667 22.3378 0.517787 22.4377 0.513079C22.4479 0.512584 22.4573 0.509633 22.4668 0.506659L22.4668 0.506658C22.4774 0.503343 22.4881 0.5 22.5 0.5H51.4286C52.0203 0.5 52.5 0.979736 52.5 1.57143V59.4286C52.5 60.0203 52.0203 60.5 51.4286 60.5H8.57143C7.97974 60.5 7.5 60.0203 7.5 59.4286V16.5714C7.5 16.5606 7.50308 16.5505 7.50613 16.5406C7.5091 16.5309 7.51203 16.5213 7.51203 16.5113C7.51779 16.4113 7.53819 16.3125 7.57167 16.2178C7.57588 16.2056 7.57924 16.1934 7.58259 16.1813ZM21.4286 15.5V4.30022L11.0282 15.5H21.4286ZM9.64286 17.6429H22.5C23.0917 17.6429 23.5714 17.1631 23.5714 16.5714V2.64286H50.3571V58.3571H9.64286V17.6429ZM25.5416 27.8345C25.4899 27.9255 25.4239 28.0082 25.347 28.0799C25.3404 28.0857 25.3358 28.0929 25.3311 28.1C25.3258 28.1081 25.3206 28.1161 25.3125 28.1222L19.9554 32.408C19.4934 32.7778 18.8185 32.703 18.4492 32.2411C18.0793 31.7791 18.1541 31.1042 18.6161 30.7349L21.5881 28.3571H18.2143C17.6226 28.3571 17.1429 27.8774 17.1429 27.2857C17.1429 26.694 17.6226 26.2143 18.2143 26.2143H21.5881L18.6161 23.8355C18.1541 23.4661 18.0793 22.7913 18.4492 22.3293C18.8185 21.8674 19.4934 21.7925 19.9554 22.1619L25.3125 26.4476C25.3205 26.4539 25.3257 26.462 25.3309 26.4701C25.3356 26.4773 25.3403 26.4846 25.347 26.4905C25.4239 26.5627 25.4899 26.6454 25.5416 26.7369C25.5683 26.7709 25.5924 26.807 25.6133 26.8442C25.7478 27.123 25.7478 27.4484 25.6133 27.7273C25.5919 27.7644 25.5678 27.8 25.5416 27.8345ZM41.7857 26.2143H38.4119L41.3839 23.8365C41.8459 23.4672 41.9207 22.7923 41.5508 22.3304C41.1815 21.8684 40.5066 21.7936 40.0446 22.1635L34.6875 26.4492C34.6794 26.4553 34.6742 26.4634 34.6689 26.4714C34.6642 26.4785 34.6596 26.4857 34.653 26.4916C34.5761 26.5632 34.5101 26.6459 34.4584 26.7369C34.4322 26.7714 34.4081 26.807 34.3867 26.8442C34.2522 27.123 34.2522 27.4484 34.3867 27.7273C34.4081 27.7644 34.4322 27.8 34.4584 27.8345C34.5101 27.9255 34.5761 28.0082 34.653 28.0799C34.6596 28.0857 34.6642 28.0929 34.6689 28.1C34.6742 28.1081 34.6794 28.1161 34.6875 28.1222L40.0446 32.408C40.5066 32.7778 41.1815 32.703 41.5508 32.2411C41.9207 31.7791 41.8459 31.1042 41.3839 30.7349L38.4119 28.3571H41.7857C42.3774 28.3571 42.8571 27.8774 42.8571 27.2857C42.8571 26.694 42.3774 26.2143 41.7857 26.2143ZM21.0587 41.8839C22.5241 38.2339 26.0669 35.8456 30 35.8571C33.9331 35.8456 37.4759 38.2339 38.9413 41.8839C39.0878 42.2392 39.0323 42.6462 38.7969 42.9496C38.561 43.2536 38.1801 43.4074 37.7998 43.353C37.4189 43.2991 37.0966 43.0448 36.9549 42.6875C35.8097 39.852 33.0579 37.9953 30 37.9953C26.9421 37.9953 24.1903 39.852 23.0451 42.6875C22.8207 43.2321 22.1992 43.4932 21.653 43.2724C21.1074 43.0516 20.8416 42.4312 21.0587 41.8839Z" fill="white"/>
</mask>
<g mask="url(#mask0_3340_28558)">
<rect x="-1.99219" y="-6.63623" width="68" height="70" fill="#00C5CA"/>
</g>
</svg>
