<svg width="60" height="61" viewBox="0 0 60 61" fill="none" xmlns="http://www.w3.org/2000/svg">
<mask id="mask0_3339_34208" style="mask-type:luminance" maskUnits="userSpaceOnUse" x="0" y="4" width="60" height="54">
<path fill-rule="evenodd" clip-rule="evenodd" d="M58.2936 38.1012C58.6844 37.7117 59.3161 37.7117 59.7069 38.1012C60.0977 38.4907 60.0977 39.1213 59.7069 39.5148L58.2936 40.9235C53.574 45.6277 47.2992 48.2179 40.6245 48.2179C34.3317 48.2179 28.3957 45.9136 23.782 41.7075C23.7662 41.6958 23.7492 41.6864 23.7322 41.6769C23.7075 41.6632 23.6828 41.6495 23.6621 41.6288L22.4117 42.8751L22.2488 43.0375L16.2178 49.0478L17.6311 50.4564L12.6836 55.3878C11.3633 56.7028 9.60716 57.4281 7.7361 57.4281C5.86604 57.4281 4.10793 56.7028 2.78859 55.3878C1.04747 53.6513 0.347825 51.092 0.964514 48.7071C1.24037 47.6441 2.03597 46.8361 3.09644 46.5472C4.14391 46.2623 5.22936 46.5482 5.99898 47.3153C6.77658 48.0904 7.07543 49.1833 6.78058 50.1665C6.67463 50.5202 6.76959 50.9008 7.03046 51.1608C7.42026 51.5503 8.05394 51.5483 8.44374 51.1608L13.3912 46.2294L14.8045 47.6381L15.906 46.5403L15.1993 45.8359C14.8085 45.4464 14.8085 44.8168 15.1993 44.4273C15.5891 44.0377 16.2218 44.0377 16.6126 44.4273L17.3203 45.1316L20.9994 41.4645L22.2498 40.2172C22.2294 40.1968 22.2158 40.1729 22.2022 40.1488C22.1931 40.1328 22.184 40.1167 22.1728 40.1016C17.951 35.503 15.6381 29.5854 15.6381 23.3112C15.6381 16.6583 18.2368 10.405 22.9564 5.70081L24.3707 4.29214C24.7615 3.90262 25.3932 3.90262 25.784 4.29214C26.1748 4.68167 26.1748 5.31129 25.784 5.70081L24.6426 6.83751C24.5326 8.89174 25.1763 10.7308 26.4906 12.0408C27.805 13.3499 29.653 13.9964 31.71 13.8819L32.8504 12.7452C33.2412 12.3556 33.8729 12.3556 34.2637 12.7452C34.6545 13.1347 34.6545 13.7643 34.2637 14.1538L33.1233 15.2905C33.0134 17.3447 33.657 19.1838 34.9714 20.4938C36.3587 21.8756 38.3377 22.5261 40.5316 22.3189C40.5405 22.3179 40.5486 22.3196 40.5567 22.3213L40.5567 22.3213L40.5568 22.3213L40.5568 22.3213C40.5614 22.3223 40.566 22.3232 40.5708 22.3237L40.5761 22.324L40.5795 22.3239C40.6105 22.3229 40.6395 22.3229 40.6705 22.3239C40.6786 22.3244 40.686 22.3228 40.6933 22.3213C40.7015 22.3196 40.7096 22.3179 40.7185 22.3189C40.7387 22.3206 40.7567 22.3276 40.7749 22.3347C40.789 22.3402 40.8031 22.3458 40.8184 22.3488C40.8237 22.3498 40.8291 22.3508 40.8344 22.3517C40.843 22.3532 40.8515 22.3547 40.8601 22.3561L40.8602 22.3561L40.8602 22.3561L40.8603 22.3561L40.8604 22.3561L40.8604 22.3561L40.8605 22.3561C40.8983 22.3624 40.9356 22.3686 40.9713 22.3817C40.9891 22.3878 41.0055 22.3963 41.022 22.4048L41.0221 22.4049L41.0354 22.4117L41.0453 22.4166C41.0841 22.4341 41.1183 22.4564 41.1533 22.4792L41.1533 22.4792L41.1672 22.4883L41.1749 22.4932C41.2201 22.5223 41.2634 22.5501 41.3032 22.5869C41.3059 22.5893 41.3088 22.5912 41.3118 22.5929L41.3167 22.5955C41.322 22.5983 41.3274 22.6011 41.3322 22.6058C41.3378 22.612 41.3416 22.6189 41.3453 22.6257C41.3488 22.6321 41.3523 22.6384 41.3571 22.6437C41.3828 22.6718 41.4037 22.7026 41.4249 22.7339L41.4381 22.7533L41.441 22.7575C41.472 22.8018 41.5018 22.8445 41.5251 22.8947C41.5381 22.9216 41.5501 22.9465 41.56 22.9744C41.5709 23.0049 41.5762 23.0362 41.5817 23.0682C41.5842 23.0833 41.5868 23.0986 41.59 23.1139C41.5934 23.1288 41.5988 23.1427 41.6042 23.1566L41.6042 23.1566C41.6117 23.1761 41.6193 23.1954 41.621 23.2175C41.6215 23.2249 41.62 23.232 41.6186 23.2393C41.6178 23.2429 41.6171 23.2465 41.6166 23.2502L41.6161 23.2545C41.6159 23.2571 41.6158 23.2597 41.616 23.2624C41.618 23.2942 41.618 23.3251 41.616 23.357C41.6158 23.3595 41.6159 23.362 41.6161 23.3644C41.6164 23.3674 41.6168 23.3704 41.6174 23.3733L41.6185 23.3788C41.62 23.3862 41.6215 23.3938 41.621 23.4018C41.4151 25.5935 42.0658 27.5621 43.4531 28.9448C44.7674 30.2539 46.6135 30.8975 48.6725 30.7859L49.8129 29.6482C50.2037 29.2587 50.8364 29.2587 51.2272 29.6482C51.617 30.0367 51.617 30.6673 51.2272 31.0569L50.0857 32.1945C49.9758 34.2488 50.6195 36.0868 51.9328 37.3969C53.2472 38.7059 55.0942 39.3525 57.1532 39.2379L58.2936 38.1012ZM7.7371 55.4316C9.07442 55.4316 10.3288 54.9136 11.2713 53.9751L14.8035 50.4524L13.3892 49.0438L9.85503 52.5664C8.68662 53.731 6.78458 53.732 5.61517 52.5664C4.83456 51.7874 4.54671 50.6477 4.86555 49.5907C4.94851 49.3158 4.83756 48.974 4.58469 48.721C4.35181 48.4889 4.09494 48.4301 3.89504 48.4301C3.78009 48.4301 3.68414 48.449 3.62317 48.466C3.26435 48.5626 2.99449 48.8386 2.90054 49.2012C2.45976 50.9057 2.95851 52.7348 4.20288 53.9751C5.14541 54.9136 6.40077 55.4316 7.7371 55.4316ZM42.0388 30.3535C43.2922 31.6028 44.8964 32.3888 46.6895 32.6737C39.0183 39.5447 30.2507 42.4836 25.3202 39.9711L39.702 25.6374C39.9778 27.4565 40.7664 29.0853 42.0388 30.3535ZM38.2867 24.2307C36.4616 23.9557 34.8294 23.1667 33.5581 21.8995C32.3027 20.6492 31.5191 19.0483 31.2333 17.2591C24.3357 24.9061 21.3872 33.647 23.9069 38.5624L38.2867 24.2307ZM22.7655 8.88476C23.0624 10.6411 23.841 12.2142 25.0764 13.4465C26.3657 14.7316 28.0259 15.5246 29.8819 15.7876C23.882 22.3717 20.7186 29.6751 21.0534 35.2948C18.8415 31.7213 17.6361 27.6109 17.6361 23.3072C17.6371 17.9913 19.4452 12.9544 22.7655 8.88476ZM28.6263 42.8315L28.6236 42.8313C32.2028 45.025 36.3177 46.2205 40.6255 46.2215C45.9558 46.2215 51.0073 44.4203 55.0882 41.1148C53.3271 40.8189 51.7539 40.0359 50.5195 38.8055C49.2302 37.5204 48.4366 35.8657 48.1717 34.0167C41.8809 39.7101 34.9274 42.8612 29.4092 42.8612C29.1432 42.8612 28.8852 42.8463 28.6263 42.8315ZM3.99798 23.2972H0.999496C0.447774 23.2972 0 23.7425 0 24.2934C0 24.8444 0.447774 25.2897 0.999496 25.2897H3.99798C7.40727 25.2897 10.0779 22.7104 10.0779 19.4169V18.338C10.0779 15.7827 8.23885 13.6457 5.80108 13.3678C5.13341 13.2891 4.46775 13.3479 3.81907 13.5391C1.16941 14.3152 -0.352822 17.0957 0.426785 19.7367C0.582706 20.2647 1.13843 20.5715 1.66816 20.4111C2.19789 20.2567 2.50074 19.7028 2.34482 19.1748C1.87705 17.5878 2.79059 15.9162 4.38279 15.4499C4.77259 15.3354 5.17139 15.3015 5.57319 15.3463C6.97848 15.5067 8.07893 16.8207 8.07893 18.338V19.4169C8.07893 21.6295 6.32481 23.2972 3.99798 23.2972ZM8.99546 33.2595H0.999496C0.447774 33.2595 0 32.8142 0 32.2633C0 31.7124 0.447774 31.2671 0.999496 31.2671H8.99546C9.54719 31.2671 9.99496 31.7124 9.99496 32.2633C9.99496 32.8142 9.54719 33.2595 8.99546 33.2595ZM0.999496 29.2965H3.976C8.70361 29.2965 13.9929 25.4531 13.9929 20.3085C13.9929 19.7576 13.5452 19.3123 12.9934 19.3123C12.4417 19.3123 11.994 19.7576 11.994 20.3085C11.994 24.2486 7.68313 27.3041 3.976 27.3041H0.999496C0.447774 27.3041 0 27.7494 0 28.3003C0 28.8512 0.447774 29.2965 0.999496 29.2965ZM4.97549 36.2482C4.97549 36.7991 4.52772 37.2444 3.976 37.2444H0.999496C0.447774 37.2444 0 36.7991 0 36.2482C0 35.6973 0.447774 35.252 0.999496 35.252H3.976C4.52772 35.252 4.97549 35.6973 4.97549 36.2482Z" fill="white"/>
</mask>
<g mask="url(#mask0_3339_34208)">
<rect x="-4.01562" y="-5.68799" width="71.5" height="72.5" fill="#00C5CA"/>
</g>
</svg>
