<svg width="24" height="24" viewBox="0 0 24 24" fill="none" xmlns="http://www.w3.org/2000/svg">
<g clip-path="url(#clip0_737_11156)">
<path d="M24 0H0V24H24V0Z" fill="#2E7123"/>
<path d="M14.3025 4.02937C13.9836 4.02699 13.6593 4.08593 13.3462 4.21562C12.0943 4.73419 11.4995 6.16981 12.0175 7.42187L12.0075 7.42561C12.0076 7.42597 12.0073 7.42651 12.0075 7.42686C12.3786 8.32297 11.9523 9.35068 11.0562 9.72186C10.1601 10.093 9.13363 9.66797 8.76245 8.77186C8.76225 8.77136 8.76141 8.77112 8.7612 8.77061L8.7512 8.77436C8.36192 7.83576 7.45727 7.26773 6.5012 7.26061C6.1824 7.25824 5.85803 7.31843 5.54495 7.44811C4.29264 7.96684 3.69748 9.40205 4.2162 10.6544C4.73478 11.9063 6.1704 12.501 7.42245 11.9831L7.4262 11.9931H7.42745C7.65148 11.9003 7.88432 11.8577 8.11245 11.8594C8.79684 11.8645 9.44406 12.271 9.72245 12.9431C10.0936 13.8392 9.66731 14.8669 8.7712 15.2381L8.77495 15.2481C7.52336 15.7672 6.92887 17.2037 7.44745 18.4556C7.96617 19.7079 9.40264 20.3018 10.6549 19.7831C11.9069 19.2645 12.5004 17.8302 11.9824 16.5781L11.9937 16.5731C11.6225 15.677 12.0476 14.6493 12.9437 14.2781C13.1677 14.1853 13.4006 14.1427 13.6287 14.1444C14.3131 14.1495 14.9603 14.556 15.2387 15.2281C15.2389 15.2285 15.2385 15.229 15.2387 15.2294L15.2487 15.2256C15.7678 16.4772 17.203 17.0704 18.455 16.5519C19.7073 16.0331 20.3024 14.5979 19.7837 13.3456C19.3947 12.4064 18.4901 11.8365 17.5337 11.8294C17.2149 11.827 16.8905 11.8872 16.5774 12.0169L16.5737 12.0069H16.5724C15.6763 12.378 14.6499 11.953 14.2787 11.0569C13.9075 10.1607 14.3326 9.13304 15.2287 8.76186L15.225 8.75186C16.4765 8.23276 17.071 6.79632 16.5524 5.54436C16.1634 4.60513 15.2589 4.03649 14.3025 4.02937Z" fill="white"/>
</g>
<defs>
<clipPath id="clip0_737_11156">
<rect width="24" height="24" fill="white"/>
</clipPath>
</defs>
</svg>
